<svg id="bf7a40f5-5fd4-4ffb-9203-dd3193e5387d" data-name="b87adc41-8d5f-4ecc-8787-1d3aee11ef83" 
    xmlns="http://www.w3.org/2000/svg" viewBox="0 0 974 805">
    <title>To Do List</title>
    <path d="M974,768.75v5a19.1,19.1,0,0,1-19.12,19.08h0a17.47,17.47,0,0,1-1.77-.08c-39.15-3.72-78.12-10.64-117.4-9.43-72.42,2.21-145.44,31.83-215.54,13.53-19.77-5.16-39.32-14.13-59.66-12.2-18.25,1.73-34.49,12.05-52.17,16.89-53.77,14.76-108.52-22.54-164.26-21-36.74,1-71.92,18.89-108.62,16.9-21.27-1.14-41.53-8.92-62.28-13.71C121.5,771.79,68.3,778.46,15.07,782.6A14,14,0,0,1,0,769.75V764.4a14,14,0,0,1,14-14h0l940.92-.76A19.11,19.11,0,0,1,974,768.74Z" transform="translate(0)" style="fill:#3f3d56"/>
    <path d="M974,768.75v5a19.1,19.1,0,0,1-19.12,19.08h0a17.47,17.47,0,0,1-1.77-.08c-39.15-3.72-78.12-10.64-117.4-9.43-72.42,2.21-145.44,31.83-215.54,13.53-19.77-5.16-39.32-14.13-59.66-12.2-18.25,1.73-34.49,12.05-52.17,16.89-53.77,14.76-108.52-22.54-164.26-21-36.74,1-71.92,18.89-108.62,16.9-21.27-1.14-41.53-8.92-62.28-13.71C121.5,771.79,68.3,778.46,15.07,782.6A14,14,0,0,1,0,769.75V764.4a14,14,0,0,1,14-14h0l940.92-.76A19.11,19.11,0,0,1,974,768.74Z" transform="translate(0)" style="opacity:0.10000000149011612;isolation:isolate"/>
    <path d="M974,759.61v5a20.7,20.7,0,0,1-.11,2.08,19.11,19.11,0,0,1-20.8,17C913.94,780,875,773,835.69,774.25c-72.42,2.22-145.44,31.84-215.54,13.53-19.77-5.16-39.32-14.13-59.66-12.2-18.25,1.73-34.49,12-52.17,16.9C454.55,807.2,399.8,769.9,344.06,771.4c-36.74,1-71.92,18.89-108.62,16.91-21.27-1.15-41.53-8.92-62.28-13.72-51.65-11.93-104.86-5.26-158.09-1.12A14,14,0,0,1,.21,762,14.86,14.86,0,0,1,0,759.51v-4.28a14,14,0,0,1,14-14L249.83,741l481.81-.4,223.28-.18A19.12,19.12,0,0,1,974,759.58v0Z" transform="translate(0)" style="fill:#3f3d56"/>
    <path d="M743.59,743.51c0,2.21-4.36,4.33-12.4,6.32C699,757.78,608,763.51,500.59,763.51c-105.67,0-195.58-5.55-229-13.31-9-2.09-14-4.34-14-6.69,0-.82.6-1.63,1.78-2.43l481.81-.4C742.77,741.61,743.59,742.51,743.59,743.51Z" transform="translate(0)" style="opacity:0.10000000149011612;isolation:isolate"/>
    <g style="opacity:0.5">
        <rect x="552" width="402" height="121" rx="19.03" style="fill:#f0f0f2"/>
        <rect x="601" y="26" width="93" height="21" style="fill:#6e3f93"/>
        <rect x="601" y="60" width="285" height="11" style="fill:#6e3f93;opacity:0.30000001192092896;isolation:isolate"/>
        <rect x="601" y="84" width="114" height="11" style="fill:#6e3f93;opacity:0.30000001192092896;isolation:isolate"/>
    </g>
    <g style="opacity:0.5">
        <rect x="48" y="98.51" width="402" height="121" rx="19.03" style="fill:#f0f0f2"/>
        <rect x="97" y="124.51" width="93" height="21" style="fill:#36334a"/>
        <rect x="97" y="158.51" width="285" height="11" style="fill:#36334a"/>
        <rect x="97" y="182.51" width="114" height="11" style="fill:#36334a"/>
        <rect x="48" y="98.51" width="402" height="121" rx="19.03" style="fill:#f0f0f2"/>
        <rect x="97" y="124.51" width="93" height="21" style="fill:#6e3f93"/>
        <rect x="97" y="158.51" width="285" height="11" style="fill:#6e3f93;opacity:0.30000001192092896;isolation:isolate"/>
        <rect x="97" y="182.51" width="114" height="11" style="fill:#6e3f93;opacity:0.30000001192092896;isolation:isolate"/>
    </g>
    <rect x="667.58" y="211.54" width="10.31" height="85.02" rx="2.29" style="fill:#3f3d56"/>
    <rect x="324.76" y="144.93" width="5.79" height="27.99" rx="1.5" style="fill:#3f3d56"/>
    <rect x="324.55" y="196.17" width="6.52" height="48.72" rx="1.69" style="fill:#3f3d56"/>
    <rect x="324.65" y="261.94" width="6.21" height="49.14" rx="1.61" style="fill:#3f3d56"/>
    <rect x="328.04" y="52.43" width="345.1" height="701.37" rx="35.69" style="fill:#3f3d56"/>
    <rect x="467.3" y="73.38" width="48.19" height="9.79" rx="2.54" style="fill:#e6e8ec"/>
    <circle cx="528.33" cy="78.27" r="5.55" style="fill:#e6e8ec"/>
    <path d="M651.83,98.11v610a27.42,27.42,0,0,1-27.41,27.4H376.76a27.42,27.42,0,0,1-27.41-27.4v-610A27.41,27.41,0,0,1,376.76,70.7h37.06v4.81a22.59,22.59,0,0,0,22.57,22.57h126a22.57,22.57,0,0,0,22.52-22.57V70.75h39.51A27.41,27.41,0,0,1,651.83,98.11Z" transform="translate(0)" style="fill:#36334a"/>
    <rect x="358" y="129" width="31" height="4" style="fill:#3f3d56"/>
    <rect x="358" y="136" width="31" height="4" style="fill:#3f3d56"/>
    <rect x="358" y="143" width="31" height="4" style="fill:#3f3d56"/>
    <rect x="358" y="129" width="31" height="4" style="fill:#3f3d56"/>
    <rect x="358" y="136" width="31" height="4" style="fill:#3f3d56"/>
    <rect x="358" y="143" width="31" height="4" style="fill:#3f3d56"/>
    <rect x="358" y="200" width="93" height="21" style="fill:#6e3f93"/>
    <rect x="358" y="234" width="285" height="11" style="fill:#6e3f93;opacity:0.30000001192092896;isolation:isolate"/>
    <rect x="358" y="258" width="114" height="11" style="fill:#6e3f93;opacity:0.30000001192092896;isolation:isolate"/>
    <rect x="358" y="444" width="93" height="21" style="fill:#6e3f93"/>
    <rect x="358" y="478" width="285" height="11" style="fill:#6e3f93;opacity:0.30000001192092896;isolation:isolate"/>
    <rect x="358" y="502" width="114" height="11" style="fill:#6e3f93;opacity:0.30000001192092896;isolation:isolate"/>
    <rect x="358" y="566" width="93" height="21" style="fill:#6e3f93"/>
    <rect x="358" y="600" width="285" height="11" style="fill:#6e3f93;opacity:0.30000001192092896;isolation:isolate"/>
    <rect x="358" y="624" width="114" height="11" style="fill:#6e3f93;opacity:0.30000001192092896;isolation:isolate"/>
    <circle cx="592" cy="676" r="34" style="fill:#6e3f93"/>
    <line x1="592" y1="661" x2="592" y2="691" style="fill:none;stroke:#fff;stroke-linecap:round;stroke-miterlimit:10"/>
    <line x1="607" y1="676" x2="577" y2="676" style="fill:none;stroke:#fff;stroke-linecap:round;stroke-miterlimit:10"/>
    <path d="M888.6,745.17c3-5.51-.4-12.27-4.29-17.18s-8.61-10-8.51-16.29c.15-9,9.7-14.31,17.33-19.09a84.45,84.45,0,0,0,15.56-12.51,22.57,22.57,0,0,0,4.78-6.4c1.58-3.52,1.54-7.52,1.44-11.37q-.51-19.26-1.91-38.49" transform="translate(0)" style="fill:none;stroke:#3f3d56;stroke-miterlimit:10;stroke-width:4px"/>
    <path d="M927.51,623.14a14,14,0,0,0-7-11.5l-3.14,6.22.1-7.53a14.21,14.21,0,0,0-4.63-.56,14,14,0,1,0,14.68,13.37Z" transform="translate(0)" style="fill:#57b894"/>
    <path d="M902.48,718.13a14,14,0,1,1,.68-11.3L894.39,714l9.65-2.23A14,14,0,0,1,902.48,718.13Z" transform="translate(0)" style="fill:#57b894"/>
    <path d="M895.55,690.88a14,14,0,0,1-4.45-27.53l-.08,5.78,3.18-6.29h0a14,14,0,0,1,14.67,13.3h0v.06a14,14,0,0,1-13.29,14.68Z" transform="translate(0)" style="fill:#57b894"/>
    <path d="M929.62,668.21a14,14,0,1,1,6.21-26.27l-2.48,6.8,5.1-4.9a14,14,0,0,1,4.55,9.67,13.63,13.63,0,0,1-.35,3.87A14,14,0,0,1,929.62,668.21Z" transform="translate(0)" style="fill:#57b894"/>
    <path d="M925.62,626.88c-3.24.35-6.39,1.36-9.64,1.56s-6.82-.57-8.88-3.1c-1.1-1.36-1.66-3.08-2.59-4.57a10,10,0,0,0-3.54-3.33,14,14,0,1,0,25.23,12.14l0-.06a14.22,14.22,0,0,0,1-2.76C926.69,626.78,926.15,626.82,925.62,626.88Z" transform="translate(0)" style="opacity:0.10000000149011612;isolation:isolate"/>
    <path d="M929.62,668.21a14,14,0,0,1-13.35-20,10.51,10.51,0,0,1,2.82,2.82c1,1.51,1.61,3.26,2.78,4.64,2.19,2.57,5.92,3.41,9.31,3.26s6.66-1.12,10-1.43c.47,0,.94-.07,1.42-.08A14,14,0,0,1,929.62,668.21Z" transform="translate(0)" style="opacity:0.10000000149011612;isolation:isolate"/>
    <path d="M895.55,690.88a14,14,0,0,1-13.46-19.76,11.62,11.62,0,0,1,3,2.85c1.09,1.54,1.77,3.32,3,4.74,2.37,2.63,6.35,3.56,9.93,3.48s6.83-.93,10.28-1.2A14,14,0,0,1,895.55,690.88Z" transform="translate(0)" style="opacity:0.10000000149011612;isolation:isolate"/>
    <path d="M902.48,718.13a14,14,0,0,1-25.59-11.45h0a13.68,13.68,0,0,1,3.08,2.75c1.34,1.62,2.22,3.47,3.76,5,2.87,2.82,7.5,4,11.63,4.09A60.44,60.44,0,0,0,902.48,718.13Z" transform="translate(0)" style="opacity:0.10000000149011612;isolation:isolate"/>
    <path d="M867.43,738.82s11.08-.34,14.42-2.72,17-5.21,17.86-1.4,16.65,19,4.15,19.06-29.06-1.94-32.4-4S867.43,738.82,867.43,738.82Z" transform="translate(0)" style="fill:#656380"/>
    <path d="M904.08,752.44c-12.51.1-29.06-2-32.39-4-2.54-1.55-3.55-7.09-3.89-9.65h-.37s.7,8.94,4,11,19.89,4.07,32.4,4c3.61,0,4.85-1.31,4.78-3.21C908.14,751.7,906.77,752.41,904.08,752.44Z" transform="translate(0)" style="opacity:0.20000000298023224;isolation:isolate"/>
    <path d="M642,331v83a19,19,0,0,1-19,19H349.35V312H623a19,19,0,0,1,19,19Z" transform="translate(0)" style="fill:#3f3d56"/>
    <rect x="208" y="295" width="402" height="121" rx="19.03" style="fill:#f2f2f2"/>
    <rect x="208" y="295" width="402" height="121" rx="19.03" style="fill:#f2f2f2"/>
    <rect x="257" y="321" width="93" height="21" style="fill:#6e3f93"/>
    <rect x="257" y="355" width="285" height="11" style="fill:#6e3f93;opacity:0.30000001192092896;isolation:isolate"/>
    <rect x="257" y="379" width="114" height="11" style="fill:#6e3f93;opacity:0.30000001192092896;isolation:isolate"/>
    <circle cx="92.34" cy="246.84" r="35.75" style="fill:#3f3d56"/>
    <path d="M71.6,524.94c3.69,25.89-.81,52.29-7.82,77.48-1.31,4.69-2.72,9.42-5.17,13.63s-5.86,7.83-8.74,11.79c-6,8.26-9.52,18-12.81,27.64A779,779,0,0,0,14.24,736.8a5.56,5.56,0,0,0,0,3.47c.87,2,3.51,2.26,5.68,2.25L48,742.37c1-1.92-.85-4-2-5.84-4-6.22-.16-14.3,3.37-20.81a223.74,223.74,0,0,0,19.78-50c1.92-7.33,3.48-14.82,6.6-21.73,3.77-8.38,9.68-15.59,14.48-23.43,5.58-9.11,9.65-19,13.69-28.93,5.64-13.78,11.33-27.73,13.55-42.45,2.09-13.82,1.06-27.9-.3-41.81a2.63,2.63,0,0,0-2.21-3,2.43,2.43,0,0,0-.85,0l-37.65-1.94c-7.76-.4-9.6-2.1-8.42,5.52C68.84,513.64,70.78,519.18,71.6,524.94Z" transform="translate(0)" style="fill:#3f3d56"/>
    <path d="M71.6,524.94c3.69,25.89-.81,52.29-7.82,77.48-1.31,4.69-2.72,9.42-5.17,13.63s-5.86,7.83-8.74,11.79c-6,8.26-9.52,18-12.81,27.64A779,779,0,0,0,14.24,736.8a5.56,5.56,0,0,0,0,3.47c.87,2,3.51,2.26,5.68,2.25L48,742.37c1-1.92-.85-4-2-5.84-4-6.22-.16-14.3,3.37-20.81a223.74,223.74,0,0,0,19.78-50c1.92-7.33,3.48-14.82,6.6-21.73,3.77-8.38,9.68-15.59,14.48-23.43,5.58-9.11,9.65-19,13.69-28.93,5.64-13.78,11.33-27.73,13.55-42.45,2.09-13.82,1.06-27.9-.3-41.81a2.63,2.63,0,0,0-2.21-3,2.43,2.43,0,0,0-.85,0l-37.65-1.94c-7.76-.4-9.6-2.1-8.42,5.52C68.84,513.64,70.78,519.18,71.6,524.94Z" transform="translate(0)" style="opacity:0.10000000149011612;isolation:isolate"/>
    <path d="M79,462c-7.65,11-15.67,23.66-13.13,36.83,1.93,10,9.55,17.75,16.74,25,28.74,28.86,57,60.92,66.78,100.47,2.52,10.22,3.74,20.71,5.91,31,3.94,18.7,11,36.58,18,54.35L192,757a28.36,28.36,0,0,0,27.1-18c-2.46-.19-5.67-2.57-7.11-4.57-8-11.07-9.64-25.31-11.69-38.81C198,680.7,195,665.9,192,651.11l-13.4-65.42c-1.55-7.55-3.1-15.11-5.12-22.54-7.82-28.83-22.64-56-24.93-85.81-.34-4.38-.55-9.19-3.52-12.44-3.12-3.43-8.24-4-12.87-4.27C113.41,459.41,97.25,457.58,79,462Z" transform="translate(0)" style="fill:#3f3d56"/>
    <path d="M28.47,736.13a30.28,30.28,0,0,0-6.22-.8,12.91,12.91,0,0,0-10.16,5.55,25,25,0,0,0-2.73,6l-2.71,7.78c-.8,2.28-1.58,4.91-.39,7a7.44,7.44,0,0,0,3.64,2.85c6.56,2.92,14,3.08,21.1,3.78,6.94.68,13.82,1.9,20.67,3.19,2.36.44,4.71.89,7.1,1.13,5.34.54,10.72,0,16.06-.48l5.51-.53a20,20,0,0,0,5.42-1,6.84,6.84,0,0,0,4-3.59c1.36-3.37-1.56-7.36-5.13-8-1.45-.29-2.95-.16-4.42-.35a20.93,20.93,0,0,1-4.84-1.45c-7.05-2.77-14.17-5.57-20.37-9.93-1.72-1.21-3.52-2.9-3.33-5a10.31,10.31,0,0,1,.89-2.59,9.46,9.46,0,0,0,.08-6.69c-.34-.92-1-1.89-1.93-2-2.64-.32-2.32,3.53-2.71,5-.53,2-1.49,2.18-3.37,2C39.23,737.42,33.83,737.15,28.47,736.13Z" transform="translate(0)" style="fill:#f2f2f2"/>
    <path d="M186.34,763a17.64,17.64,0,0,0,3.82,10.75,8.38,8.38,0,0,0,2.72,2.19,11,11,0,0,0,5,.79,40.1,40.1,0,0,0,13.89-2.81,39.08,39.08,0,0,1,4.8-1.81,54.51,54.51,0,0,1,6.24-.9c8.27-1.19,15.53-6.07,23.52-8.54a49,49,0,0,0,7-2.3c3.16-1.49,5.72-4,8.23-6.43a19.76,19.76,0,0,0,3.78-4.52c1.47-2.74,1.56-6,1.62-9.1a2.64,2.64,0,0,0-.24-1.41,2.09,2.09,0,0,0-.9-.71c-2.43-1.2-5.31-.6-8-.13-9.72,1.73-19.67,1.41-29.54,1.09a4.29,4.29,0,0,1-4.54-2.59l-3.75-6c-1.07-1.72-2.77-3.69-4.71-3.1-1.55.47-2.18,2.37-2.12,4s.56,3.25.25,4.84a6.61,6.61,0,0,1-3.2,4.16,20.51,20.51,0,0,1-5,1.92c-5.52,1.56-11.94,3.33-16.21,7.39C185.86,752.66,186.15,759.11,186.34,763Z" transform="translate(0)" style="fill:#f2f2f2"/>
    <path d="M184.4,366.26a23.4,23.4,0,0,0,5.46-5.94,24.07,24.07,0,0,0,2.33-8.21l1.57-9.92c.87-5.47,1.89-11.26,5.54-15.43s10.92-5.66,14.63-1.54c1.62,1.79,2.26,4.25,2.66,6.64a48.33,48.33,0,0,1-11.82,40c-4.49,4.92-10,8.83-14.75,13.48-4.14,4-7.73,8.59-11.55,12.94A159.58,159.58,0,0,1,147,425.78c.14-7.44,1.09-15.42,0-22.81-.81-5.34-3-8.22,2.17-11.71C161.17,383.1,173.28,375.72,184.4,366.26Z" transform="translate(0)" style="fill:#fbbebe"/>
    <path d="M83.56,293.08c-.39,5.32-2.6,10.76-7,13.83q18.69,6.54,36.87,14.42c-2.34-2.25-3.05-5.7-3.16-8.94-.31-8.47,2.62-16.8,6.9-24.1a5.89,5.89,0,0,0,1.13-3.18c-.14-2.36-2.94-3.45-5.24-4a128.86,128.86,0,0,0-23.92-3.47c-3.45-.11-7.54-1.2-6.76,3.19C83.12,284.93,83.87,288.93,83.56,293.08Z" transform="translate(0)" style="fill:#fbbebe"/>
    <circle cx="107.66" cy="266.7" r="29.23" style="fill:#fbbebe"/>
    <path d="M136.6,345.65a34.89,34.89,0,0,0-3.71-6.22c-5.3-7.61-10.74-15.21-17.54-21.51A109.5,109.5,0,0,0,98.7,305.69a37.79,37.79,0,0,0-10.42-5,40.77,40.77,0,0,0-6.69-.91L74,299.16a6.1,6.1,0,0,0-2,.06c-2.06.52-3,3.08-2.56,5.15s2,3.75,3.38,5.32c.34,15.49-6.55,30.77-7.48,46.24-1.63,27,14.88,52.21,16.2,79.28a8.44,8.44,0,0,1-.38,3.63c-.22.56-.55,1.07-.8,1.62-.78,1.7-.75,3.63-.89,5.5a27.94,27.94,0,0,1-8.23,17.62,12.23,12.23,0,0,0,4.64,3.54c3.19,1.39,7,1.51,10.39,2.48,8.84,2.58,17.9,5.18,27.09,4.63a23.9,23.9,0,0,0,2.09-7.87c1.3-.81,2.8.92,3,2.44s-.09,3.29,1,4.39,2.47.93,3.8.76c5.61-.71,11-2.6,16.5-3.87s11.38-1.88,16.73-.06c1.08-1.37.62-3.4-.26-4.9s-2.13-2.82-2.63-4.49a10.12,10.12,0,0,1-.32-2.95c0-8.55,1.76-17.19.09-25.58-.49-2.46-1.27-4.86-1.77-7.33-1-4.79-.85-9.73-.72-14.62s-.46-10.18-.56-15.14a48.29,48.29,0,0,0-.4-6.13c-.34-2.13-1-4.21-1.18-6.36-.54-5.46,1.66-10.88,1.33-16.36C149.51,357.84,139.84,353.32,136.6,345.65Z" transform="translate(0)" style="fill:#ff6584"/>
    <path d="M70.63,341.73c-7.08,18.78-10.54,38.7-14,58.48l-8,46.46c-2.27,13.13-4.55,26.34-4.46,39.66,0,3.74.24,7.55-.74,11.16-1.28,4.74-4.46,8.69-6.87,13A42.77,42.77,0,0,0,32,539.42c.82,4.15,3.06,8.86,7.27,9.34,3.46.38,6.45-2.37,8.47-5.21,4.64-6.51,6.94-14.37,9-22.11a500.11,500.11,0,0,0,13.87-77.09,75.3,75.3,0,0,1,1.39-9.8,68.66,68.66,0,0,1,3.38-9.76Q80,413.41,84.57,402c7.07-17.53,14.18-35.14,23.89-51.36-9.6-2.76-19.59-6-29.19-8.73C76.46,341.12,73.49,341.61,70.63,341.73Z" transform="translate(0)" style="fill:#fbbebe"/>
    <path d="M87.27,356c-6.72-1.45-13.67-1-20.53-1.17a4.44,4.44,0,0,1-2.76-.72c-1.39-1.19-.8-3.42-.1-5.11l3.32-8a11.51,11.51,0,0,1,2.66-4.42c1.69-1.5,4.07-1.87,6.31-2.14,7.29-.84,14.79-1.12,21.86.85s13.72,6.45,16.88,13.08c1.32,2.76,1.93,6.24.18,8.75-2.6,3.73-8.43,7.9-12.78,5.86C97.1,360.51,93.11,357.24,87.27,356Z" transform="translate(0)" style="fill:#ff6584"/>
    <path d="M123,221.3a29.53,29.53,0,0,0-16.28,4.7,35.75,35.75,0,0,0-35.1-8.22A20.43,20.43,0,1,0,48,241.42,35.75,35.75,0,0,0,115.84,264c.27-.82.52-1.66.73-2.5a32.12,32.12,0,0,0,6.41.65c14.1,0,25.54-9.15,25.54-20.43S137.08,221.3,123,221.3Z" transform="translate(0)" style="fill:#3f3d56"/>
    <path d="M128.09,251.94a30.71,30.71,0,0,1-6.41-.65A35.48,35.48,0,0,1,117,261.58a31.85,31.85,0,0,0,6,.58c13.18,0,24-8,25.39-18.24C143.7,248.8,136.35,251.94,128.09,251.94Z" transform="translate(0)" style="opacity:0.10000000149011612;isolation:isolate"/>
    <path d="M87.23,277.51a35.8,35.8,0,0,1-34.18-46.28,20.43,20.43,0,0,1-16.58-23.66l0-.12a20.43,20.43,0,0,0,11.46,34,35.75,35.75,0,0,0,68.29,21.18A35.66,35.66,0,0,1,87.23,277.51Z" transform="translate(0)" style="opacity:0.10000000149011612;isolation:isolate"/>
</svg>