<svg width="42" height="42" viewBox="0 0 42 42" fill="none" 
    xmlns="http://www.w3.org/2000/svg">
    <g clip-path="url(#clip0)">
        <path d="M27.3006 2.5885H24.4855C23.9516 1.082 22.5103 0 20.8203 0C19.1302 0 17.689 1.082 17.1525 2.5885H14.34C13.6246 2.5885 13.044 3.16833 13.044 3.88276V9.05977C13.044 9.77419 13.6246 10.354 14.34 10.354H27.3006C28.016 10.354 28.5966 9.77419 28.5966 9.05977V3.88276C28.5966 3.16833 28.016 2.5885 27.3006 2.5885Z" fill="white"/>
        <path d="M33.7808 5.17701H31.1887V9.05977C31.1887 11.2005 29.4442 12.9425 27.3006 12.9425H14.34C12.1964 12.9425 10.4519 11.2005 10.4519 9.05977V5.17701H7.85976C6.43151 5.17701 5.26765 6.33925 5.26765 7.76551V38.8276C5.26765 40.2797 6.40559 41.4161 7.85976 41.4161H33.7808C35.235 41.4161 36.373 40.2797 36.373 38.8276V7.76551C36.373 6.31336 35.235 5.17701 33.7808 5.17701ZM20.4419 28.0956L15.2576 33.2726C15.0036 33.5237 14.6718 33.6506 14.34 33.6506C14.0082 33.6506 13.6765 33.5237 13.4224 33.2726L10.8303 30.6841C10.3249 30.1794 10.3249 29.3588 10.8303 28.8541C11.3358 28.3493 12.1575 28.3493 12.6629 28.8541L14.34 30.5262L18.6066 26.2656C19.1121 25.7608 19.9338 25.7608 20.4393 26.2656C20.9447 26.7703 20.9473 27.5883 20.4419 28.0956ZM20.4419 17.7416L15.2576 22.9186C15.0036 23.1697 14.6718 23.2965 14.34 23.2965C14.0082 23.2965 13.6765 23.1697 13.4224 22.9186L10.8303 20.3301C10.3249 19.8254 10.3249 19.0048 10.8303 18.5C11.3358 17.9953 12.1575 17.9953 12.6629 18.5L14.34 20.1722L18.6066 15.9115C19.1121 15.4068 19.9338 15.4068 20.4393 15.9115C20.9447 16.4163 20.9473 17.2343 20.4419 17.7416ZM29.8927 31.0621H24.7085C23.993 31.0621 23.4124 30.4822 23.4124 29.7678C23.4124 29.0534 23.993 28.4736 24.7085 28.4736H29.8927C30.6081 28.4736 31.1887 29.0534 31.1887 29.7678C31.1887 30.4822 30.6081 31.0621 29.8927 31.0621ZM29.8927 20.708H24.7085C23.993 20.708 23.4124 20.1282 23.4124 19.4138C23.4124 18.6994 23.993 18.1195 24.7085 18.1195H29.8927C30.6081 18.1195 31.1887 18.6994 31.1887 19.4138C31.1887 20.1282 30.6081 20.708 29.8927 20.708Z" fill="white"/>
    </g>
    <defs>
        <clipPath id="clip0">
            <rect x="0.0834503" width="41.4737" height="41.4161" fill="white"/>
        </clipPath>
    </defs>
</svg>
